<svg id="Layer_1" data-name="Layer 1" xmlns="http://www.w3.org/2000/svg" viewBox="0 0 100.03 100"><defs><style>.cls-1{fill:#333;}.cls-2{fill:#a72600;}</style></defs><title>ig</title><path class="cls-1" d="M100,0H75"/><path class="cls-2" d="M51,59.6a11,11,0,1,0-10.91-11A11,11,0,0,0,51,59.6Z"/><path class="cls-2" d="M67,42a17,17,0,1,1-31.76,0H26v0.71c0,8-.11,16-0.1,24a6.35,6.35,0,0,0,6.68,6.71H69.7a6.44,6.44,0,0,0,6.78-6.78c0-8,0-15.88,0-23.88A5.08,5.08,0,0,0,76.42,42H67Z"/><path class="cls-2" d="M74,26H64V36H74V26Z"/><path class="cls-2" d="M100,0L0,0.06V15.25H0L0,100H100l0-85h0V0ZM70.32,79.49q-19.15.06-38.3,0c-6.74,0-11.69-5.08-11.73-11.93,0-6.3,0-12.61,0-18.91s0-12.54,0-18.81c0-5.07,2.24-8.9,6.92-11a12.26,12.26,0,0,1,4.79-1c12.77-.08,25.54-0.07,38.3,0A11.5,11.5,0,0,1,82,29.54q0,19.1,0,38.21A11.5,11.5,0,0,1,70.32,79.49Z"/></svg>