<svg id="Layer_1" data-name="Layer 1" xmlns="http://www.w3.org/2000/svg" viewBox="0 0 93.1 96.82"><defs><style>.cls-1{fill:#a62600;}</style></defs><title>logo</title><path class="cls-1" d="M40.64,32a0.85,0.85,0,0,0-.17.09,1.79,1.79,0,0,1-1.6.34A17.22,17.22,0,0,1,34,31a8.21,8.21,0,0,1-3.64-3.48,4.58,4.58,0,0,1-.11-4,7.58,7.58,0,0,1,1.92-2.93A28.49,28.49,0,0,1,35.66,18a13.37,13.37,0,0,1,4.78-1.87A20.77,20.77,0,0,1,43,15.75a33.45,33.45,0,0,1,3.73-.09c1.88,0.09,3.77.25,5.64,0.47,1.18,0.14,2.33.45,3.5,0.64a10,10,0,0,0,1.5,0c0.17-.16.07-0.31-0.09-0.54a10.53,10.53,0,0,0-3.64-2.75,19.12,19.12,0,0,0-4.57-1.93c-1.31-.34-2.64-0.59-4-0.86A20.22,20.22,0,0,0,40,10.54a40.18,40.18,0,0,0-4.58.7,14.4,14.4,0,0,0-4.25,1.46,11.92,11.92,0,0,0-4.39,3.81,14.68,14.68,0,0,0-2.21,4.64,10.6,10.6,0,0,0,.4,6.71,12.87,12.87,0,0,0,3.43,4.81,25.63,25.63,0,0,0,5.32,3.77,17,17,0,0,0,3.6,1.22,15.82,15.82,0,0,0,5.2.49,13.12,13.12,0,0,0,5.81-2,8.43,8.43,0,0,1,1.91-.76,2.39,2.39,0,0,1,.88.09,2,2,0,0,1-1.18,1.82,19.2,19.2,0,0,1-5.59,2.21,11.63,11.63,0,0,1-1.8.22c-1.18.06-2.36,0.1-3.54,0.1a14.89,14.89,0,0,1-7.23-1.73,39.37,39.37,0,0,1-5.09-3.35A12.3,12.3,0,0,1,23.93,32,12.83,12.83,0,0,1,22,27.33,22.46,22.46,0,0,1,21.46,22a9.16,9.16,0,0,1,.91-3.89C23,16.9,23.5,15.56,24.12,14.3a18.61,18.61,0,0,1,2.54-3.75A22.6,22.6,0,0,1,32.06,6a28.51,28.51,0,0,1,7.77-3.43,26,26,0,0,1,3.49-.66,34.86,34.86,0,0,1,4.12-.28,21.14,21.14,0,0,1,2.86.34q1.36,0.18,2.71.4a22.2,22.2,0,0,1,5.32,1.61A28.63,28.63,0,0,1,63.08,6.6C63.72,7,64.32,7.52,65,7.94c1,0.62,1.46.63,2.12-.45,0.57-.92,1-1.94,1.53-2.89,0.31-.54.71-1,1.13-1.64,0.27,0.66.5,1.2,0.72,1.74,0.63,1.57,1.28,3.12,1.86,4.71,0.76,2.07,1.49,4.16,2.17,6.26,0.88,2.71,1.71,5.44,2.54,8.17s1.71,5.7,2.57,8.55S81.34,38.12,82.2,41q1,3.5,2.08,7a37,37,0,0,0,2.8,7.2,9.57,9.57,0,0,0,1.53,2.3,3.46,3.46,0,0,0,5.09,0c0.36-.35.67-0.75,1-1.11a1.32,1.32,0,0,1,1.47-.16,1,1,0,0,1,.19,1.33c-0.6.93-1.22,1.86-1.89,2.74-0.9,1.18-1.86,2.33-2.81,3.48-0.6.72-1.24,1.4-1.83,2.13-1,1.21-1.95,2.42-2.87,3.66-0.59.79-1.08,1.65-1.63,2.46a3.13,3.13,0,0,1-.52.6,1,1,0,0,1-1.33-.19c-1-1-1.92-2-2.87-3l-0.2-.2c-1.24-1.27-2.48-2.52-3.7-3.81-1-1.06-2-2.14-2.95-3.23a5.57,5.57,0,0,1-1.25-3,18.64,18.64,0,0,0-1-3.54,0.35,0.35,0,0,0-.62-0.12q-0.86.88-1.69,1.78c-0.42.46-.8,1-1.23,1.41a40.16,40.16,0,0,0-4.43,5.9c-1.28,1.92-2.55,3.85-3.8,5.8a2.94,2.94,0,0,1-3.22,1.37,11,11,0,0,1-2.95-1c-2-.9-4-1.89-6-2.76a23.5,23.5,0,0,0-5.07-1.49,17.15,17.15,0,0,0-4.12-.25,31.68,31.68,0,0,0-7.44,1.27,27.45,27.45,0,0,0-7.3,3.48,21.82,21.82,0,0,0-4,3.41c-0.5.55-.89,1.19-1.33,1.78a0.78,0.78,0,0,0,0,1,0.84,0.84,0,0,0,1,.32c1.21-.4,2.4-0.87,3.62-1.2,2.44-.67,4.89-1.32,7.36-1.89a22.9,22.9,0,0,1,3.33-.4c1.27-.1,2.54-0.16,3.81-0.19,1.72-.05,3.44-0.09,5.16-0.09,1.89,0,3.79,0,5.68.1a40.17,40.17,0,0,1,4.36.47c2,0.32,4,.69,5.9,1.15,1.62,0.39,3.2,1,4.81,1.42a26.15,26.15,0,0,1,4.13,1.69,35.85,35.85,0,0,1,5.21,2.87,6.91,6.91,0,0,1,2.45,2.31,5.83,5.83,0,0,1,.68,2A7.57,7.57,0,0,1,75,90.23a6.42,6.42,0,0,1-2,2.15,21.12,21.12,0,0,1-7.79,3.43c-1.56.37-3.12,0.73-4.69,1-0.88.17-1.79,0.2-2.69,0.3a100.71,100.71,0,0,1-11.49.27,25.45,25.45,0,0,1-6.71-1c-3.83-1-7.64-2.07-11.37-3.4a22.7,22.7,0,0,1-6-3.22,19.4,19.4,0,0,1-3.92-3.73c-0.58-.76-1.1-1.57-1.68-2.33-0.72-1-1.15-1-2.2-.42-1.26.71-2.55,1.38-3.8,2.1-1.45.84-2.92,1.66-4.31,2.6a4.64,4.64,0,0,0-2,3.43,3.74,3.74,0,0,0,.21,2.27,5.29,5.29,0,0,0,2.13,2.07,14.48,14.48,0,0,0,5.6,1.89,11.88,11.88,0,0,0,4.76-.38,0.73,0.73,0,0,1,.61.08,0.76,0.76,0,0,1,.05.65,0.64,0.64,0,0,1-.49.3c-1.66,0-3.34.11-5,0a13.16,13.16,0,0,1-4.71-1.22A12.91,12.91,0,0,1,5.17,95.7a4.67,4.67,0,0,1-1.54-2.83,6.52,6.52,0,0,1,.44-4.32,4.33,4.33,0,0,1,.85-1.16c1.12-1.1,2.23-2.23,3.44-3.24,1.75-1.46,3.53-2.89,5.38-4.21,1.5-1.07,1.32-1.76,1.14-3a12.1,12.1,0,0,1-.1-2.89,12.53,12.53,0,0,1,.73-3.14,16.46,16.46,0,0,1,2.57-4.57,27.92,27.92,0,0,1,2.44-2.73,20.19,20.19,0,0,1,4.31-3.12,28,28,0,0,1,5.37-2.3,40.08,40.08,0,0,1,6.64-1.58c1.46-.2,2.93-0.34,4.41-0.47,0.7-.07,1.41-0.08,2.12-0.1,0.48,0,1,.06,1.43,0a2.23,2.23,0,0,0,1.77-1.42q1.46-3,2.86-6.1c1.17-2.56,2.31-5.12,3.46-7.69,0.75-1.68,1.52-3.36,2.24-5.05A8.72,8.72,0,0,0,56,31.47a5.22,5.22,0,0,0-1.09-2.7,15.16,15.16,0,0,0-8.78-5.41c-1.32-.31-2.68-0.44-4-0.69a6.88,6.88,0,0,0-2.41-.12,7.86,7.86,0,0,0-3,1.3,13.09,13.09,0,0,0-1.35,1,3.12,3.12,0,0,0,.79,5c1,0.46,2.05.89,3.09,1.3a3.1,3.1,0,0,0,1,.24C40.69,31.42,40.7,31.65,40.64,32ZM25.73,66.5c1.52-.42,3-0.82,4.55-1.26a32.17,32.17,0,0,1,7-1.36A28.65,28.65,0,0,1,41.7,64c1.66,0.16,3.31.43,4.95,0.75a23.91,23.91,0,0,1,5.45,1.79c1.14,0.53,2.29,1,3.45,1.53a2.33,2.33,0,0,0,1.11.27,3.09,3.09,0,0,0,2-1.64,3.74,3.74,0,0,0-.56-0.45c-1.3-.67-2.59-1.37-3.92-2a24.83,24.83,0,0,0-9.69-2c-1.05,0-2.11.07-3.16,0.08a40.47,40.47,0,0,0-7,.37,21,21,0,0,0-5.46,1.77c-1.1.54-2.12,1.23-3.18,1.85l-0.46.22,0,0.09Zm25,29.65c1.5-.18,3-0.34,4.5-0.53s3.13-.4,4.69-0.67a24.1,24.1,0,0,0,6.61-2.09A14.39,14.39,0,0,0,71.64,89a3.48,3.48,0,0,0,.85-2.39,3.39,3.39,0,0,0-1.75-2.71,28.4,28.4,0,0,0-3.49-1.79,39.31,39.31,0,0,0-4.55-1.61c-1.52-.43-3.1-0.68-4.66-1-1.37-.25-2.74-0.48-4.12-0.66s-2.63-.29-4-0.38-2.79-.2-4.19-0.19c-3.14,0-6.28.09-9.42,0.19-1.39,0-2.78.13-4.17,0.29-1.74.2-3.46,0.48-5.19,0.75a38,38,0,0,0-6.9,1.82c-1.18.42-1.83,1.22-1,2.55a10.47,10.47,0,0,0,3.08,3,44.33,44.33,0,0,0,7.12,4c1.88,0.79,3.76,1.6,5.68,2.27,1.75,0.61,3.55,1.08,5.35,1.52,1.38,0.34,2.78.54,4.18,0.77,0.8,0.13,1.6.2,2.4,0.29ZM66,19.22a4.93,4.93,0,0,0-.35.54A8.22,8.22,0,0,1,65,21.13a2.64,2.64,0,0,0-.45,2.52c0.52,1.59,1,3.19,1.54,4.77q1.52,4.56,3.06,9.12c1.12,3.31,2.26,6.62,3.36,9.94,0.8,2.43,1.54,4.88,2.29,7.33a31.2,31.2,0,0,0,1.08,3.51,21.18,21.18,0,0,0,3.72,5.08c0.45,0.52.95,1,1.41,1.52C82,66,82.91,67,83.86,68a0.47,0.47,0,0,0,.77,0c0.27-.28.6-0.5,0.86-0.79a0.74,0.74,0,0,0,0-1.07,3.18,3.18,0,0,0-.57-0.57,15.17,15.17,0,0,1-3.43-3,27.64,27.64,0,0,1-2.08-2.89,19.62,19.62,0,0,1-1.91-5.07c-0.77-2.71-1.5-5.44-2.3-8.15s-1.7-5.67-2.63-8.48C70.46,31.79,68.51,25.49,66,19.22ZM55,49.87c-1.56-.25-2.24.24-2.65,1.26s-1,2.25-1.53,3.35-0.21,1.24.73,1.57h0l5.9,1.61c1.83,0.5,3.66,1,5.5,1.5a1.19,1.19,0,0,0,1.32-.38c0.53-.67,1.12-1.3,1.66-2,1.2-1.47,2.39-2.94,3.56-4.43a1.47,1.47,0,0,0-1.13-2.52c-2.65-.05-5.31-0.08-8-0.1-0.63,0-1.25.08-1.88,0.09C57.23,49.88,55.89,49.87,55,49.87Zm-23.6-39v0.07c0.38,0,.76-0.07,1.13-0.13,0.93-.16,1.86-0.28,2.77-0.52a26.67,26.67,0,0,1,5.77-.9,26.21,26.21,0,0,1,5.49.28c1.39,0.24,2.79.49,4.16,0.86a22.25,22.25,0,0,1,7,3.32A16.11,16.11,0,0,1,61,16.89,2.07,2.07,0,0,0,62.33,18c0.4-.66.86-1.31,1.21-2A2.41,2.41,0,0,0,63,12.86a12.94,12.94,0,0,0-1.52-1.14,48.43,48.43,0,0,0-7.38-4.08,15.52,15.52,0,0,0-4.86-1.21,20.66,20.66,0,0,0-3.21.09A31.73,31.73,0,0,0,42,7a46.27,46.27,0,0,0-4.87,1.36C36,8.75,34.93,9.3,33.82,9.79ZM66.91,41.09a1.68,1.68,0,0,0,0-.3L66,37.84q-1.52-4.9-3-9.79a1.28,1.28,0,0,0-.25-0.33,1.23,1.23,0,0,0-.36.29c-0.79,1.52-1.56,3-2.34,4.57s-1.5,2.9-2.23,4.36q-0.67,1.34-1.29,2.71c-0.26.58-.09,1,0.63,1.08a16.05,16.05,0,0,0,1.85.2C59.81,41,60.69,41,61.57,41c0.58,0,1.16.05,1.74,0.1A10,10,0,0,0,66.91,41.09Zm-25.09-21V20.2a0.72,0.72,0,0,0,.2.1c1.59,0.19,3.18.34,4.76,0.59a9.78,9.78,0,0,1,3.95,1.46c0.88,0.59,1.71,1.26,2.6,1.85,1.3,0.86,2.62,1.67,3.93,2.5a1,1,0,0,0,1.19-.08,2,2,0,0,0,.47-1.69,1.72,1.72,0,0,0-1-1.71c-0.39-.21-0.81-0.37-1.22-0.54-1.49-.61-3-1.19-4.47-1.81A15,15,0,0,0,47,19.66c-1.42-.06-2.85.09-4.28,0.18A4.38,4.38,0,0,0,41.82,20.09Zm27,27.31a2,2,0,0,0-1.83-2.07c-1-.1-2.11-0.11-3.16-0.1-1.56,0-3.12.06-4.68,0.09-0.84,0-1.68,0-2.52,0a7.47,7.47,0,0,0-1.49.11,1.07,1.07,0,0,0-.62.54,6.81,6.81,0,0,0-.34,1.21l0.27,0c1.18,0,2.36.05,3.54,0.1,1.4,0.05,2.79.17,4.19,0.18C64.34,47.49,66.56,47.43,68.77,47.4Z" transform="translate(-3.45 -1.59)"/></svg>