<svg id="Layer_1" data-name="Layer 1" xmlns="http://www.w3.org/2000/svg" viewBox="0 0 1504.23 300.61"><defs><style>.cls-1{fill:#fefefe;}.cls-2{fill:#fdfdfd;}.cls-3{fill:#a62600;}.cls-4{fill:#252525;}</style></defs><title>a</title><path class="cls-1" d="M667.22,220.45V221l-1.32.38-0.12-.29Z" transform="translate(-16.6 -20.3)"/><path class="cls-2" d="M1213.35,147.24a0.5,0.5,0,0,1,.24,0,0.63,0.63,0,0,1,.1.25l-0.49-.07Z" transform="translate(-16.6 -20.3)"/><path class="cls-3" d="M715.38,114.6a2.63,2.63,0,0,0-.53.27,5.56,5.56,0,0,1-5,1c-5.16-1-10.32-2-15-4.45a25.49,25.49,0,0,1-11.31-10.79,14.23,14.23,0,0,1-.35-12.28,23.53,23.53,0,0,1,5.95-9.09,88.44,88.44,0,0,1,10.8-8.15,41.51,41.51,0,0,1,14.84-5.81,64.49,64.49,0,0,1,8-1.08A103.86,103.86,0,0,1,734.36,64c5.85,0.28,11.7.79,17.52,1.46,3.65,0.42,7.23,1.4,10.87,2a31.18,31.18,0,0,0,4.66,0c0.52-.51.22-1-0.29-1.66-2.92-4-7.17-6.22-11.31-8.55a59.37,59.37,0,0,0-14.18-6c-4.06-1-8.2-1.84-12.31-2.67-5.28-1.06-10.65-.79-15.95-0.5-4.77.26-9.49,1.35-14.22,2.17a44.71,44.71,0,0,0-13.2,4.55,37,37,0,0,0-13.63,11.84A45.58,45.58,0,0,0,665.44,81a32.9,32.9,0,0,0,1.24,20.84,40,40,0,0,0,10.65,14.95,79.57,79.57,0,0,0,16.51,11.71,52.7,52.7,0,0,0,11.18,3.8,49.1,49.1,0,0,0,16.16,1.52,40.74,40.74,0,0,0,18-6.09,26.17,26.17,0,0,1,5.92-2.37c0.79-.24,1.79.17,2.75,0.29,0,2.73-1.37,4.34-3.65,5.64a59.62,59.62,0,0,1-17.35,6.87,36.1,36.1,0,0,1-5.59.69c-3.66.18-7.34,0.31-11,.3a46.22,46.22,0,0,1-22.45-5.37A122.22,122.22,0,0,1,672,123.41a38.17,38.17,0,0,1-8.52-8.7,39.83,39.83,0,0,1-5.87-14.5,69.74,69.74,0,0,1-1.8-16.4,28.45,28.45,0,0,1,2.84-12.08c2-3.91,3.5-8,5.44-12A57.77,57.77,0,0,1,672,48.11a70.16,70.16,0,0,1,16.75-14.24A88.52,88.52,0,0,1,712.9,23.22a80.58,80.58,0,0,1,10.85-2.06,108.23,108.23,0,0,1,12.78-.86,65.63,65.63,0,0,1,8.89,1q4.21,0.57,8.41,1.24a68.93,68.93,0,0,1,16.53,5,88.88,88.88,0,0,1,14.72,8.29c2,1.35,3.85,2.85,5.86,4.15,3,1.94,4.52,2,6.6-1.39,1.78-2.87,3.09-6,4.76-9,1-1.69,2.19-3.22,3.49-5.09,0.84,2,1.56,3.72,2.24,5.42,1.94,4.86,4,9.69,5.78,14.61C816.15,51,818.42,57.5,820.53,64c2.73,8.42,5.31,16.9,7.89,25.37,2.69,8.84,5.31,17.7,8,26.54s5.36,17.78,8,26.68q3.25,10.88,6.45,21.78a115,115,0,0,0,8.7,22.35,29.73,29.73,0,0,0,4.74,7.15c4.54,4.52,11,4.87,15.81.15,1.11-1.09,2.09-2.32,3.17-3.43a4.11,4.11,0,0,1,4.57-.49,3.12,3.12,0,0,1,.6,4.13c-1.86,2.89-3.78,5.77-5.86,8.5-2.81,3.68-5.77,7.24-8.72,10.8-1.85,2.24-3.85,4.36-5.68,6.62-3,3.74-6,7.5-8.92,11.36-1.82,2.45-3.35,5.11-5.06,7.65A9.71,9.71,0,0,1,852.6,241c-1,.86-2.87.66-4.13-0.6-3-3-6-6.11-8.92-9.17l-0.62-.63c-3.84-3.93-7.71-7.83-11.49-11.81-3.12-3.29-6.16-6.64-9.15-10a17.29,17.29,0,0,1-3.87-9.42,57.86,57.86,0,0,0-3.06-11,1.09,1.09,0,0,0-1.93-.37q-2.67,2.72-5.24,5.54c-1.31,1.43-2.48,3-3.82,4.38-5.36,5.53-9.51,12-13.74,18.33-4,6-7.93,12-11.8,18-2.37,3.7-5.56,4.87-10,4.25-3.32-.46-6.2-1.88-9.15-3.18-6.28-2.78-12.43-5.87-18.75-8.57a73,73,0,0,0-15.75-4.63,53.25,53.25,0,0,0-12.79-.77,98.37,98.37,0,0,0-23.09,3.93,85.22,85.22,0,0,0-22.66,10.8,67.75,67.75,0,0,0-12.5,10.6c-1.54,1.7-2.75,3.68-4.12,5.53a2.41,2.41,0,0,0,0,3.16,2.6,2.6,0,0,0,3.18,1c3.75-1.23,7.44-2.69,11.24-3.74,7.58-2.09,15.19-4.1,22.86-5.87a71.09,71.09,0,0,1,10.34-1.23c3.93-.31,7.88-0.48,11.82-0.6,5.34-.16,10.68-0.29,16-0.29,5.88,0,11.77,0,17.65.32a124.73,124.73,0,0,1,13.53,1.46c6.14,1,12.26,2.13,18.31,3.57,5,1.2,9.94,3,14.93,4.41a81.18,81.18,0,0,1,12.83,5.23,111.3,111.3,0,0,1,16.17,8.92c2.87,2,6,3.93,7.62,7.18a18.1,18.1,0,0,1,2.1,6.15,23.5,23.5,0,0,1-2.44,13.62,19.92,19.92,0,0,1-6.26,6.67c-7.27,5.34-15.48,8.59-24.2,10.65-4.83,1.14-9.67,2.27-14.55,3.2-2.74.52-5.57,0.61-8.35,0.94-11.86,1.43-23.78.78-35.67,0.85a79,79,0,0,1-20.82-3c-11.88-3.16-23.73-6.43-35.31-10.56a70.48,70.48,0,0,1-18.62-10,60.24,60.24,0,0,1-12.18-11.59c-1.8-2.36-3.41-4.86-5.2-7.23-2.24-3-3.58-3.14-6.84-1.31-3.91,2.21-7.9,4.27-11.79,6.52-4.51,2.6-9.06,5.16-13.37,8.07-3.66,2.47-5.52,6.22-6.08,10.65-0.31,2.44-.51,4.78.65,7.06,1.48,2.9,3.91,4.79,6.62,6.43a45,45,0,0,0,17.38,5.87,36.87,36.87,0,0,0,14.77-1.18,2.27,2.27,0,0,1,1.91.25,2.36,2.36,0,0,1,.16,2,2,2,0,0,1-1.54.93c-5.17.07-10.36,0.35-15.49,0a40.86,40.86,0,0,1-14.63-3.78,40.08,40.08,0,0,1-7.49-4.42c-2.75-2.17-4.07-5.38-4.79-8.79a20.23,20.23,0,0,1,1.35-13.4,13.45,13.45,0,0,1,2.63-3.59c3.48-3.43,6.93-6.92,10.67-10.05,5.43-4.54,11-9,16.71-13.08,4.65-3.34,4.1-5.48,3.54-9.3a37.58,37.58,0,0,1-.31-9,38.89,38.89,0,0,1,2.25-9.76,51.09,51.09,0,0,1,8-14.18,86.67,86.67,0,0,1,7.58-8.47,62.69,62.69,0,0,1,13.39-9.68A87.07,87.07,0,0,1,683,196.09a124.43,124.43,0,0,1,20.6-4.9c4.54-.61,9.11-1,13.68-1.47,2.18-.21,4.38-0.25,6.58-0.3,1.48,0,3,.18,4.44,0,2.71-.29,4.39-2.12,5.49-4.41q4.52-9.43,8.87-18.94c3.63-7.94,7.18-15.91,10.75-23.88,2.34-5.22,4.72-10.43,7-15.69,1.82-4.28,3.14-8.72,2.65-13.45a16.21,16.21,0,0,0-3.38-8.4c-7-9-16.35-14.21-27.26-16.79-4.1-1-8.33-1.37-12.48-2.13a21.36,21.36,0,0,0-7.48-.36,24.4,24.4,0,0,0-9.24,4,40.65,40.65,0,0,0-4.2,3,9.68,9.68,0,0,0,2.46,15.65c3.16,1.44,6.38,2.76,9.61,4a9.63,9.63,0,0,0,3.2.74C715.57,112.93,715.57,113.63,715.38,114.6ZM669.1,221.83c4.71-1.3,9.44-2.56,14.14-3.92a99.86,99.86,0,0,1,21.67-4.22,89,89,0,0,1,13.79.29c5.15,0.48,10.28,1.35,15.37,2.34A74.24,74.24,0,0,1,751,221.88c3.55,1.64,7.12,3.23,10.72,4.76a7.23,7.23,0,0,0,3.45.85c3-.4,4.62-2.72,6.29-5.08a11.61,11.61,0,0,0-1.74-1.41c-4-2.08-8-4.26-12.17-6.11-9.56-4.28-19.69-6-30.09-6.27-3.27-.07-6.55.23-9.82,0.26-7.26.06-14.51-.16-21.72,1.16a65.32,65.32,0,0,0-17,5.48c-3.41,1.66-6.59,3.81-9.87,5.74l-1.43.67,0.12,0.29Zm77.71,92c4.66-.55,9.32-1,14-1.65,4.86-.63,9.73-1.24,14.56-2.09a74.83,74.83,0,0,0,20.52-6.49c6-3,11.57-6.57,15.79-11.9a10.79,10.79,0,0,0,2.64-7.42,10.52,10.52,0,0,0-5.44-8.42A88.19,88.19,0,0,0,798,270.35a122,122,0,0,0-14.12-5c-4.73-1.32-9.61-2.12-14.45-3-4.25-.79-8.51-1.49-12.79-2-4.07-.53-8.17-0.9-12.27-1.19-4.33-.3-8.67-0.61-13-0.58-9.75.07-19.49,0.29-29.24,0.58-4.32.13-8.64,0.4-12.93,0.9-5.39.62-10.75,1.49-16.12,2.33A118.12,118.12,0,0,0,651.68,268c-3.67,1.3-5.68,3.77-3,7.91a32.52,32.52,0,0,0,9.56,9.17,137.64,137.64,0,0,0,22.11,12.37c5.83,2.46,11.66,5,17.64,7,5.43,1.88,11,3.36,16.62,4.72,4.27,1,8.65,1.68,13,2.4,2.47,0.41,5,.62,7.46.91ZM794.22,75.05a15.31,15.31,0,0,0-1.1,1.67,25.53,25.53,0,0,1-2,4.25,8.2,8.2,0,0,0-1.41,7.84c1.6,4.93,3.14,9.89,4.78,14.81q4.71,14.17,9.49,28.3c3.47,10.28,7,20.54,10.42,30.85,2.48,7.55,4.78,15.16,7.12,22.76,1.12,3.64,1.81,7.46,3.34,10.91,2.69,6,7.25,10.84,11.54,15.77,1.41,1.62,2.94,3.13,4.39,4.72,2.92,3.2,5.81,6.42,8.76,9.59a1.47,1.47,0,0,0,2.39.14c0.85-.86,1.87-1.56,2.68-2.46a2.3,2.3,0,0,0-.13-3.32,9.87,9.87,0,0,0-1.77-1.76,47.1,47.1,0,0,1-10.66-9.28,85.82,85.82,0,0,1-6.44-9c-3-4.83-4.39-10.33-5.93-15.74-2.4-8.43-4.65-16.9-7.14-25.3-2.61-8.81-5.29-17.6-8.18-26.32C808,114.07,801.93,94.51,794.22,75.05ZM760,170.21c-4.83-.77-6.95.74-8.24,3.91-1.44,3.53-3.08,7-4.74,10.41-1.76,3.65-.64,3.84,2.26,4.86,0,0,.1,0,0.15,0l18.33,5c5.69,1.56,11.37,3.2,17.09,4.67a3.71,3.71,0,0,0,4.11-1.17c1.66-2.08,3.48-4,5.16-6.09,3.71-4.56,7.41-9.13,11-13.75,1.17-1.48,1.84-3.23,1-5.1a4.73,4.73,0,0,0-4.5-2.73c-8.24-.16-16.48-0.25-24.72-0.3-1.94,0-3.89.24-5.83,0.27C766.89,170.24,762.73,170.21,760,170.21ZM686.69,49l0,0.21c1.17-.13,2.36-0.2,3.52-0.4,2.88-.49,5.79-0.87,8.6-1.6a82.79,82.79,0,0,1,17.91-2.79,81.39,81.39,0,0,1,17.06.88c4.33,0.76,8.67,1.53,12.9,2.67a69.08,69.08,0,0,1,21.6,10.3,50,50,0,0,1,10.28,9.49c1.1,1.35,1.86,3.22,4.14,3.48,1.23-2,2.67-4.08,3.76-6.29,1.64-3.31,1.64-6.87-1.61-9.7a40.19,40.19,0,0,0-4.72-3.54c-7.36-4.72-14.81-9.27-22.9-12.66a48.2,48.2,0,0,0-15.09-3.75,64.15,64.15,0,0,0-10,.27,98.5,98.5,0,0,0-12.48,1.52,143.66,143.66,0,0,0-15.12,4.22c-3.56,1.18-6.94,2.9-10.39,4.39C691.7,46.83,689.2,47.94,686.69,49ZM797,142.93a5.21,5.21,0,0,0-.1-0.95c-0.95-3-1.92-6.08-2.87-9.13q-4.73-15.2-9.47-30.4a4,4,0,0,0-.78-1,3.82,3.82,0,0,0-1.11.91c-2.45,4.71-4.84,9.45-7.25,14.18-2.31,4.52-4.65,9-6.92,13.55q-2.09,4.16-4,8.41c-0.82,1.81-.27,3,2,3.37a49.84,49.84,0,0,0,5.76.61c2.73,0.16,5.46.2,8.2,0.32,1.8,0.08,3.6.16,5.39,0.3C789.45,143.35,793.14,144,797,142.93Zm-77.9-65.2,0,0.35a2.23,2.23,0,0,0,.63.3c4.92,0.6,9.87,1,14.77,1.83a30.35,30.35,0,0,1,12.25,4.54c2.74,1.84,5.32,3.92,8.08,5.74,4,2.66,8.14,5.17,12.22,7.75a2.94,2.94,0,0,0,3.68-.23c1.73-1.44,1.36-3.38,1.45-5.26a5.35,5.35,0,0,0-3.22-5.3c-1.22-.64-2.5-1.16-3.78-1.68-4.62-1.88-9.28-3.69-13.88-5.61a46.42,46.42,0,0,0-16.12-3.76c-4.42-.17-8.86.28-13.28,0.55A13.61,13.61,0,0,0,719.06,77.73Zm83.69,84.79a6.21,6.21,0,0,0-5.68-6.43c-3.25-.3-6.54-0.33-9.81-0.32-4.85,0-9.69.19-14.54,0.27-2.61,0-5.21,0-7.82,0a23.19,23.19,0,0,0-4.62.35,3.33,3.33,0,0,0-1.94,1.67,21.15,21.15,0,0,0-1.07,3.75c0.38,0.05.61,0.11,0.84,0.12,3.67,0.1,7.33.17,11,.31,4.33,0.16,8.66.53,13,.55C789,162.82,795.86,162.62,802.75,162.52Z" transform="translate(-16.6 -20.3)"/><path class="cls-3" d="M943.09,197.33c3.12-4.29,8.72-4.6,12.42-7.61s6.69-5.54,11.54-6c1.4-.12,3.22-2.43,3.76-4.09,1.07-3.23,3.76-2.48,5.88-3.41,5.12-2.25,10-5.09,15-7.51,2.12-1,4.54-1.4,6.7-2.36a19.16,19.16,0,0,0,5.33-3.23c1.26-1.18,1.67-3.22,2.86-4.51s2.86-2.9,4.31-2.89,2.65,2,3.79,2.95l3.63-5,1.4,2.41,8.17-11.11,7,7.54,1.24-.57c-0.47-1.28-1-2.54-1.39-3.85-0.48-1.7-1.18-3.46-1.05-5.14,0.05-.73,2.24-2.13,2.91-1.86,5.46,2.18,5.42,2.27,8.55-2.68a4.88,4.88,0,0,1,1.13-.72l2.91,6,9.31,1.5,1.17-4.28c2.8-.68,7.4,1.73,7.39-4.17a2.73,2.73,0,0,1,1-1c2-1.84,3.88-3.74,5.93-5.49a4,4,0,0,1,2.54-1.06,115.91,115.91,0,0,1,13.93,1.47c1.3,0.25,2.2,2.54,3.61,4.31l2-8.44,11,3v0.13a40.79,40.79,0,0,0,4.86,1.14c1.75,0.2,3.55,0,5.31.09,2.91,0.21,5.82.56,9,.88l0.26-2.4c2.93,0,5.69,0,5.3,5.16l5.26-3.8c4.07,1.29,9,3,14,4.34,1.52,0.42,3.28,0,4.92-.11,5.48-.49,11.11-1.84,15.14,3.76,0.38,0.53,1.73.42,2.63,0.49,3.78,0.28,7.6.25,11.34,0.82q10.86,1.66,21.62,3.89c2.86,0.59,5.57,1.91,8.91,3.09l2.54-1.35a25.42,25.42,0,0,1,1.58,3.63c0.46,1.77,4.27,4.19,5.37,3,2.06-2.14,3.48-.39,5,0.42,1.31,0.69,2.35,2.3,3.66,2.49,4.65,0.68,7,4.7,10.43,7,1.3,0.86,1.69,3.12,2.68,5.12h9.77c0.52,4.78.81,5.12,5.19,3.4,3.07-1.2,5.91-2.61,8.4-.84l-1.23,6.85,1.19,1.17,16.92-5.73c-0.81,4.5,2.21,3,5.23,2.38l-1.8,9.12,1.27,0.41,2.68-5,8.09,0.45-0.46.68,12.51,6.26,5.35-8.25,1.25,0.93-0.4,6.36,0.9,0.59L1327,178l2,3.85,3.77-4.56a4.1,4.1,0,0,1,.71.86c0.54,1.86,1.06,3.73,1.58,5.59,1.54-1.21,3.13-2.35,4.58-3.66,0.79-.71,1.16-1.92,2-2.49a13.43,13.43,0,0,1,3.35-1.16,14.66,14.66,0,0,1,.66,2.89c0.08,3.12,0,6.25,0,9.78l4.3-2.78c3.2-2.08.41-4.81-.14-6.34-1.2-3.3-1.83-3.07-1.26-6.19l5,2.76c-2.2,4.3,2.69,5.87,4.21,9,0.26,0.54,1.87.88,2.56,0.6s0.82-1.52,1.29-2.28c0.75-1.19,1.33-2.83,2.43-3.4,3.79-1.94,3.4-5.82,4.6-9.55,3.23,3,2,6.18,1.73,9.23a18.14,18.14,0,0,0,.45,3.68c1-1,2.62-1.86,2.86-3a83,83,0,0,0,.9-9.66c5.08,4.65,6.65,10.41,8.71,16.12,1.32-1.88,3-3.35,3.48-5.14,1.25-4.25,4.45-1.78,6.74-2.22,0.3-.06,1.24,1.55,1.35,2.45,0.39,3.22.55,6.46,0.79,9.69l1.81,0.11,4.95-17,5.92,10.9,0.81-.26v-3.26l8.74-7.25c0.2,2.88.17,4.27,0.43,5.61a14.76,14.76,0,0,0,1.17,2.82,6.27,6.27,0,0,1,1.93-1.55,36.41,36.41,0,0,1,4.8-.6l0.45,4.38,3.68-.17,1.54,3.33c1.89-3.47,4.83-4.34,8.25-3.92,3.07,0.38,6.12.89,9.17,1.34,1-6.58,3.16-7.61,8.5-5.09,0.52,0.24,1.53-.57,2.32-0.9l4.66,9.11,0.89,0-0.77-9.05c2.83-.93,6-2.8,9,0.88a2.52,2.52,0,0,0,2.23-.49c1.94-2.64,4.32-1.67,6.77-1.22,3.22,0.59,6.45,1.17,9.16-1.76,0.48-.51,2.19.11,3.8,0.25L1496,180c3.11-.34,6.92.37,8.75-1.21,3-2.58,4.27-1.35,6.32,1.51l0.65-5.27c2.61,0.14,5.37.18,8.08,0.54,0.46,0.06.81,1.48,1,2.32a3.81,3.81,0,0,1-1.15.83l-0.84-1.33c-1.71,1.33-4.12,2.51-5.46,4.44-1.9,2.73-4.25,3-7.12,3.18a7.15,7.15,0,0,0-4.21,2.23c-4.06,4.31-5.6.89-7.87-3.32l-5.74,6.28c-1.84-.41-5.62.32-6.22-4.38l-4.32,1.38c-0.41,1.46.81,5.81-3.21,3.63l-2.92,5.66c-2-5-3.67-5.21-6.84-2.25-2.35,2.2-4.9,4.46-8.41,1.91-3.2,4.28-5,4.49-9.4.42a20.67,20.67,0,0,1-2.88,3.85,19.84,19.84,0,0,1-4.15,2.19l-4.48-5.09-14,10.85c0.12-1.82.1-2.48,0.22-3.11,0.27-1.34.62-2.66,0.94-4l-4.3.49-5.12.61-0.19,4.06-2-4.39-6.33,4.29-0.25-5.7-8.06-.6c0.6,3.59-.49,6.25-4.1,7.7-0.69.28-.81,2-1.21,3-0.34.88-.7,1.74-1.49,3.69-1.26-3-2.64-4.8-2.68-6.65-0.09-3.77-2-3.44-3.81-1.81s-3,4.13-4.53,6.25l-1.55-1.25-1.05-3.14-3.53,4.5-0.55-2.47-3.15,5.64-4.17-12.44-1.13,0-2.35,11.63H1348l1.57-4.1c-4.11,0-7.83-.52-11.34.14-3.95.74-7.7,2.55-11.82,4l-1.56-3.6-11.37,2.26v-3.11c-5,2.23-7-4.85-12.38-3.38-4,1.11-8.53.22-13.16,0.22l-0.49-3.47c-5.57-.67-5.57-0.67-5.61-1.22l-19.5-6.88a7.73,7.73,0,0,0,.63-2,6.46,6.46,0,0,0-.43-2.07c-0.7.27-1.83,0.35-2,.83-2.28,5.32-4.43,3.45-7.35.35-4.7-5-9.81-9.58-14.77-14.31-0.87-.83-1.75-1.95-2.8-2.22-4.64-1.19-8.18-4.33-12.11-6.7-2.69-1.62-4.72-4.29-7.24-6.25-1.7-1.32-4-2-5.57-3.37-4.9-4.33-12.45-2.32-17.17-7.59-1.47-1.65-5.27-1.23-8-1.73s-5.34-1.07-8-1.4c-1.78-.22-3.71.32-5.39-0.14-3.33-.91-6-2.92-9.89.15-2.37,1.86-7,1-10.59,1.08a4.29,4.29,0,0,1-2.51-1.29,22.19,22.19,0,0,1-2.29-2.74l-2.68,4.33c-5.44.43-11.74,0.28-17.7,1.62-4.47,1-9.57-2.62-13.41,2a6.73,6.73,0,0,1-.77,0c-3.08,6.09-6,1.64-8.53,0l-7.37,4.33c-5.35-5.23-10.77,3.4-16.67.18l-1.92,5.78c-1.41-3.37-4-3.62-6.88-1.3a43,43,0,0,1-5.89,3.47l-0.74-1.08c-0.26,1.2-.43,2.42-0.8,3.58a7.36,7.36,0,0,1-.89,1.65h-15.31l-1.24-2.33-8.12,6.8-4.6-5-2,6.75-1.42-5.38-1.37-.13L1027,181c-1.13-1.81-1.62-3-2.48-3.85a24.8,24.8,0,0,0-3.54-2.47c-0.36,1.31-.8,2.61-1,3.94a6.6,6.6,0,0,0,.24,2l-5.49,3.85-1.5-.65,2.17-10-4,1.6-1.85-3.34-1,0a27.74,27.74,0,0,1-.07,5.12,8,8,0,0,1-1.88,4.26,77.54,77.54,0,0,1-7.46,5.42l-2.6-2.9-0.87,2.69-11.3-.54-1.55,4.24c-2.21.38-4.25,0.74-6.29,1.07-2.77.45-5.56,0.77-8.3,1.36a52.31,52.31,0,0,0-6.19,1.87c-4.23,1.47-8.45,3-12.66,4.55-2.32.85-4.58,1.52-6.31-1.07v-0.84Zm272.14-49.28-0.16.22,0.49,0.07a0.63,0.63,0,0,0-.1-0.25A0.5,0.5,0,0,0,1215.22,148.05Z" transform="translate(-16.6 -20.3)"/><path class="cls-3" d="M56,186.79l-6.09,4.09L44.35,184a24.52,24.52,0,0,0-2.12,2.92c-1.48,3.21-3.33,2.81-5.51.72-1-1-2.25-2.61-3.19-2.48-7,1-9.75-4.42-13.52-8.84l-1.84,3.75L16.6,175h9.74l0.85,5.26c2-2.85,3.29-4,6.24-1.41,1.75,1.53,5.45.83,8.58,1.17l0.37-2.3a1.59,1.59,0,0,0,.52.21c4.82,0.44,9.29,4.06,14.47,1.52,0.77-.38,2.36-0.47,2.75,0,1.86,2.24,3.51,2.15,6.11,1,2.07-.93,4.79-0.44,7.13-0.57l-0.9,9.83h0.94L78,180.49l2.28,1.07c1.27-3,4,.31,5.56-1.25l3.4,4.64-0.79.77c5.59,2.69,13.08-4.86,17.75,3.41l1.64-3.49c4,1.89,4-1,3.95-4.86a37.47,37.47,0,0,0,5.53,2.51,2.75,2.75,0,0,0,2.36-1.34c0.44-1.56.31-3.27,0.51-6.48l8.66,6.83v3.47l0.85,0.38,6-11,5,17.1c3.29-3.34,3.66-8.45,1.14-11.06,4.72-2.57,8.41-.88,12.95,6.19l4.08-10.81,4.6-5.28c0.3,3.22.46,6.12,0.91,9a9,9,0,0,0,1.63,3.46c0.19,0.27,1.85-.05,1.86-0.13,0-1.22-.15-2.44-0.17-3.67,0-2.83,0-5.67,0-8.5l1.7-.13a15.57,15.57,0,0,1,.75,2.33c0.52,3.21,1.41,6,5,7.18,0.71,0.23.93,1.91,1.41,2.9s0.76,2.15,1.5,2.54a2.68,2.68,0,0,0,2.51-.87c1.46-3,6.23-4.52,3.89-8.87l5.45-2.78c-0.52,2.48,2.18,5.14-2,6.62-0.55.2-.21,4.06,0.44,6,0.37,1.08,2.2,1.67,4,2.95,0-3.62-.06-6.82,0-10a12.42,12.42,0,0,1,.76-2.83c1,0.31,2.3.33,3,1,1.56,1.41,2.78,3.19,4.23,4.72a15.84,15.84,0,0,0,2.29,1.7,13.64,13.64,0,0,0,1.71-2.84c0.32-1,.16-2.16.27-4.4l4.34,5.26,2-3.74,5.35,8,1.1-.49-1.18-6.4,0.63-.71,8.1,7.38c2.43-3.69,9.2-.53,10-6.72h8.57l2.67,4.87,1.32-.33-1.75-8.42c2-1.17,6.34,2.48,4.92-3.16l17,5.79,1.24-1-1-7.07c2.51-2.33,5.91-.37,8.75,1.13,4.39,2.32,4.4-.32,4.63-3.53h8.82c2.46-2.74,4.61-4.46,5.88-6.69,2.87-5,9.33-4.42,12.78-8.52,0.65-.77,2.78-2.42,3.91.38a9.66,9.66,0,0,0,3.73-1,6.53,6.53,0,0,0,1.93-2.53c0.54-.94.9-2,1.5-3.35l3.58,1.75c3.9-5.31,10.43-3,15.83-4.56A84.09,84.09,0,0,1,356,139.29c6.13-.52,12.17-0.45,17.3-4.57a3.94,3.94,0,0,1,2.86-.22c9.06,2,17.31-1.17,25.28-3.89l3,2.82,7.2-5.4,0.42,4.89c0.44-.14.81-0.27,1.18-0.38,2.21-.64,4.4-1.44,6.65-1.88,2.56-.5,5.37-1.43,7.74-0.83,4.16,1,7-3.2,11-2.06,0.83,0.23,2.06-1,3.4-1.63l2.14,9.69c2.36-7.4,7.44-6.6,12.61-5.71,0.51,0.09,1.11-.58,1.7-0.64,2.47-.23,5.46-1.7,6.3,2.47,0.08,0.42,1.09.6,1.51,1,1.93,2,5.09,2.76,5.54,6.36,0.11,0.9,2.86,2.07,4.39,2.06,2.22,0,2.18-.42,2.73,1.69a18,18,0,0,0,.91,2.25c9.35-3.31,9.35-3.31,12.44-7.75,0.72,1.14,1.4,2.08,1.95,3.09,1.49,2.76,3.92,3.31,6.35,1.56a11.83,11.83,0,0,1,3-1.11c0.36,1,1.18,2.2,1,3.12-0.36,1.63-1.59,3.06-2,4.69-0.35,1.39-.07,2.93-0.07,4.75l7.79-8.73,8,10.75,0.12-.81h0c3.83-.85,4.29,2.08,4.86,3.9,1.32-1,2.82-3.11,4.2-3,1.57,0.09,3.21,2,4.48,3.35,1.09,1.19,1.52,3,2.57,4.21s2.48,2.92,3.74,2.91c6.86-.07,11.58,4.14,16.75,7.59A11.67,11.67,0,0,0,560.3,176c5,0.31,7.67,3.23,10.17,7,0.68,1,2.81,1.4,4.33,1.54,2.46,0.24,4,.7,5.44,3.33,1.26,2.27,4.79,4.57,7.3,4.55,4.13,0,4.89,3.57,7.53,4.89v0.84c-1.86.48-4.16,1.9-5.5,1.28a65.22,65.22,0,0,0-16-4.94c-4.71-.88-9.27-2.58-13.93-3.74a17.84,17.84,0,0,0-4.22-.05l-1.7-4.61-12.11.8,0.33-3.19-2.91,3.13c-2.77-1.89-6.24-3.21-8-5.72-1.6-2.34-1.34-6-2.07-9.89l-2.28,4.26-4.25-2.14,2.72,10.11-1.37.95-5.1-3.24-1.39-6.46L511,179.86l-1.15-8.4-1.34-.13-1.57,5c-1.58-1.54,0-6.11-4.73-4.63l-1.37,3.89-8.28-7.09-0.35,1.32a30.63,30.63,0,0,1-4.21.67c-4,.09-7.91,0-12.53,0l-1.71-4.95-0.44.85c-2-1.08-4.22-1.89-5.94-3.3-3-2.51-5.4-2.34-6.86,1.37l-1.94-5.94c-5.73,3.3-11-5-16.72-.12L434.51,154c-0.61.48-1.54,1.31-2.57,2-1.8,1.2-3.27,2.31-5-.65-2-3.49-5.92-4-10.15-2.83a17.41,17.41,0,0,1-6.07.1,75.94,75.94,0,0,1-10.18-1.27c-3.26-.73-7.67.18-8.59-4.89,0-.22-1-0.29-1.8-0.51-0.57,4.14-3.18,4.83-6.62,4.05-3.61-.82-7.79.64-10.8-2.86-0.42-.49-2.1,0-3.18.2-2.49.38-5,.75-7.45,1.28-2.11.45-4.19,1.67-6.24,1.57a22.1,22.1,0,0,0-15.18,4.45c-2.11,1.59-5.57,1.26-8.14,2.41a56.31,56.31,0,0,0-10.48,5.87c-4.48,3.31-8.48,7.27-12.87,10.73-1,.82-3,0.37-4.14,1.15A100.77,100.77,0,0,0,294.42,183c-4,3.7-7.56,7.89-11.46,11.72-1.52,1.5-3.22,1.62-4.23-.82a3,3,0,0,0-.88-1.38,14.69,14.69,0,0,0-2.36-1.06,13.85,13.85,0,0,0-.21,2.5,5,5,0,0,0,.53,1.52l-19.31,6.75c-0.35.69-.74,2.67-1.63,2.94-1.2.36-2.8-.59-4.32-1l-0.31,3.13c-6.05,0-11.93-.06-17.79.07-0.76,0-1.48,1.05-2.24,1.58s-2,1.81-2.52,1.59c-3.32-1.32-3.79.64-3.74,2.88L213.45,211l-1.86,3.91A100.08,100.08,0,0,0,201.34,211c-1.78-.48-3.95-2.57-6.06.44-0.49.7-3.92-.66-6.7-1.21l1.46,4.39H176.72l-2-11.37-1.21-.09-4.8,11.19-2.35-3.87-0.86,1.79L162.19,208l-1.29,3.12-8.67-7-3.32,10c-2.66-3.15-1.55-8.86-7.05-7.62l-1-8.15-3.93,3.13-3.3-2.3-0.35,7-6.42-3.89-1.81,4.26v-4.47c-1.76,0-3.24.11-4.71,0-1.69-.15-3.36-0.52-5-0.79,0.41,1.6.84,3.18,1.19,4.79a6.72,6.72,0,0,1-.45,1.9l-13.39-10.3c-1.1,1-3.08,4.17-5.18,4.26-2.3.1-4.73-2.66-7.27-4.28-3.84,2.88-5.68,2.66-8.4-1.56-3.53,2.58-6.18.43-8.64-1.9-3.1-2.95-4.83-2.69-6.67,1.8l-7.06-8.57,0.68-.48-3.45-1-1-.22Z" transform="translate(-16.6 -20.3)"/><path class="cls-4" d="M516.51,154.11l0.33-.71,0.31,0.32-0.67.38h0Z" transform="translate(-16.6 -20.3)"/><path class="cls-2" d="M54.1,186l-0.23-1,1,0.22Z" transform="translate(-16.6 -20.3)"/></svg>